<?xml version="1.0" encoding="UTF-8" standalone="no"?>
<!-- Created with Inkscape (http://www.inkscape.org/) -->

<svg
   xmlns:dc="http://purl.org/dc/elements/1.1/"
   xmlns:cc="http://creativecommons.org/ns#"
   xmlns:rdf="http://www.w3.org/1999/02/22-rdf-syntax-ns#"
   xmlns:svg="http://www.w3.org/2000/svg"
   xmlns="http://www.w3.org/2000/svg"
   xmlns:xlink="http://www.w3.org/1999/xlink"
   xmlns:sodipodi="http://sodipodi.sourceforge.net/DTD/sodipodi-0.dtd"
   xmlns:inkscape="http://www.inkscape.org/namespaces/inkscape"
   width="200"
   height="200"
   viewBox="0 0 52.916662 52.91667"
   version="1.1"
   id="svg4016"
   inkscape:version="0.92.3 (2405546, 2018-03-11)"
   sodipodi:docname="blobglue.svg">
  <defs
     id="defs4010">
    <linearGradient
       inkscape:collect="always"
       id="linearGradient1505">
      <stop
         style="stop-color:#000000;stop-opacity:1;"
         offset="0"
         id="stop1501" />
      <stop
         style="stop-color:#000000;stop-opacity:0;"
         offset="1"
         id="stop1503" />
    </linearGradient>
    <linearGradient
       inkscape:collect="always"
       xlink:href="#linearGradient1505"
       id="linearGradient1507"
       x1="44.366737"
       y1="296.73273"
       x2="37.685001"
       y2="279.36017"
       gradientUnits="userSpaceOnUse" />
  </defs>
  <sodipodi:namedview
     id="base"
     pagecolor="#ffffff"
     bordercolor="#666666"
     borderopacity="1.0"
     inkscape:pageopacity="0.0"
     inkscape:pageshadow="2"
     inkscape:zoom="1.979899"
     inkscape:cx="24.688673"
     inkscape:cy="138.26293"
     inkscape:document-units="mm"
     inkscape:current-layer="layer1"
     showgrid="false"
     units="px"
     inkscape:window-width="2560"
     inkscape:window-height="1323"
     inkscape:window-x="2560"
     inkscape:window-y="27"
     inkscape:window-maximized="1" />
  <metadata
     id="metadata4013">
    <rdf:RDF>
      <cc:Work
         rdf:about="">
        <dc:format>image/svg+xml</dc:format>
        <dc:type
           rdf:resource="http://purl.org/dc/dcmitype/StillImage" />
        <dc:title />
      </cc:Work>
    </rdf:RDF>
  </metadata>
  <g
     inkscape:label="Layer 1"
     inkscape:groupmode="layer"
     id="layer1"
     transform="translate(0,-244.08332)">
    <g
       id="g1153"
       transform="matrix(1.0176779,0,0,1.0176779,-31.930376,-4.8096108)">
      <path
         sodipodi:nodetypes="ccccc"
         inkscape:connector-curvature="0"
         id="path934"
         d="m 72.959571,292.12587 c -11.961011,3.25932 -22.007497,2.6896 -30.994046,0 1.056073,-9.49861 0.647431,-18.54653 4.023266,-28.7589 8.043892,-2.35513 15.821412,-1.78017 23.469049,0.22351 2.313248,9.65505 2.684711,19.06737 3.501731,28.53539 z"
         style="fill:#f5f5f5;fill-opacity:1;stroke:none;stroke-width:0.10430688px;stroke-linecap:butt;stroke-linejoin:miter;stroke-opacity:1" />
      <path
         sodipodi:nodetypes="ccccc"
         inkscape:connector-curvature="0"
         id="path936"
         d="m 51.055126,256.06549 -0.670545,7.45049 c 5.176018,1.62678 9.771623,1.55244 14.155935,0 l -0.819554,-7.30148 c -4.321237,-1.34047 -8.543279,-1.39139 -12.665836,-0.14901 z"
         style="fill:#efb26f;fill-opacity:1;stroke:none;stroke-width:0.10430688px;stroke-linecap:butt;stroke-linejoin:miter;stroke-opacity:1" />
      <path
         sodipodi:nodetypes="sccs"
         inkscape:connector-curvature="0"
         id="path938"
         d="m 56.941014,246.90138 c -1.591046,0 -2.682177,9.46212 -2.682177,9.46212 1.961963,1.13957 3.923926,1.04507 5.885889,0 0,0 -1.538437,-9.46212 -3.203712,-9.46212 z"
         style="fill:#de9440;fill-opacity:1;stroke:none;stroke-width:0.10430688px;stroke-linecap:butt;stroke-linejoin:miter;stroke-opacity:1" />
      <path
         inkscape:connector-curvature="0"
         id="path940"
         d="m 52.059336,257.4295 -0.443819,5.63293"
         style="opacity:0.3260002;fill:none;stroke:#838383;stroke-width:0.81214684;stroke-linecap:round;stroke-linejoin:miter;stroke-miterlimit:4;stroke-dasharray:none;stroke-opacity:1" />
      <path
         style="opacity:0.3260002;fill:none;stroke:#838383;stroke-width:0.81214684;stroke-linecap:round;stroke-linejoin:miter;stroke-miterlimit:4;stroke-dasharray:none;stroke-opacity:1"
         d="m 53.603106,257.76321 -0.402151,5.63606"
         id="path984"
         inkscape:connector-curvature="0" />
      <path
         inkscape:connector-curvature="0"
         id="path986"
         d="m 55.170724,258.07762 -0.333676,5.64053"
         style="opacity:0.3260002;fill:none;stroke:#838383;stroke-width:0.81214684;stroke-linecap:round;stroke-linejoin:miter;stroke-miterlimit:4;stroke-dasharray:none;stroke-opacity:1" />
      <path
         style="opacity:0.3260002;fill:none;stroke:#838383;stroke-width:0.81214684;stroke-linecap:round;stroke-linejoin:miter;stroke-miterlimit:4;stroke-dasharray:none;stroke-opacity:1"
         d="m 56.638566,258.24236 -0.214659,5.64632"
         id="path988"
         inkscape:connector-curvature="0" />
      <path
         inkscape:connector-curvature="0"
         id="path990"
         d="m 58.178393,258.29635 0.05841,5.6501"
         style="opacity:0.3260002;fill:none;stroke:#838383;stroke-width:0.81214684;stroke-linecap:round;stroke-linejoin:miter;stroke-miterlimit:4;stroke-dasharray:none;stroke-opacity:1" />
      <path
         style="opacity:0.3260002;fill:none;stroke:#838383;stroke-width:0.81214684;stroke-linecap:round;stroke-linejoin:miter;stroke-miterlimit:4;stroke-dasharray:none;stroke-opacity:1"
         d="m 59.771297,258.13082 0.225322,5.6459"
         id="path992"
         inkscape:connector-curvature="0" />
      <path
         inkscape:connector-curvature="0"
         id="path994"
         d="m 61.36377,257.78597 0.504855,5.6278"
         style="opacity:0.3260002;fill:none;stroke:#838383;stroke-width:0.81214684;stroke-linecap:round;stroke-linejoin:miter;stroke-miterlimit:4;stroke-dasharray:none;stroke-opacity:1" />
      <path
         style="opacity:0.3260002;fill:none;stroke:#838383;stroke-width:0.81214684;stroke-linecap:round;stroke-linejoin:miter;stroke-miterlimit:4;stroke-dasharray:none;stroke-opacity:1"
         d="m 62.776469,257.41734 0.58515,5.62001"
         id="path996"
         inkscape:connector-curvature="0" />
      <path
         sodipodi:nodetypes="ccccc"
         inkscape:connector-curvature="0"
         id="path1042"
         d="m 48.745473,269.9234 c 6.303746,0.95555 12.098362,1.20327 17.806676,0.37252 1.264885,6.44769 1.282955,11.59229 1.415594,17.28514 -5.85274,2.12889 -12.55517,2.09133 -20.786873,0.22352 0.06117,-6.02616 0.143914,-12.04924 1.564603,-17.88118 z"
         style="fill:#ffc7c7;fill-opacity:1;stroke:none;stroke-width:0.10430688px;stroke-linecap:butt;stroke-linejoin:miter;stroke-opacity:1" />
      <g
         transform="matrix(0.39423076,0,0,0.39423076,38.527709,166.47127)"
         id="g1077">
        <path
           sodipodi:nodetypes="cszzzzzszszc"
           inkscape:connector-curvature="0"
           id="path1044"
           d="m 31.953816,295.49903 c 0.190573,-0.12921 6.128596,-4.97012 11.475799,-5.0689 3.627199,-0.0675 6.66906,-0.45303 11.072328,1.36829 4.40326,1.82152 9.36275,5.38969 9.4919,5.46875 0.12913,0.0787 0.21483,0.52768 0.1215,0.72796 -0.0933,0.20001 -0.39491,0.14 -0.50335,0.0685 -0.10845,-0.0718 -5.51083,-3.27615 -9.24891,-4.82226 -3.738086,-1.5461 -6.946552,-1.36462 -11.07232,-1.36829 -5.348137,-0.006 -10.753954,4.43528 -10.926527,4.46609 -0.172592,0.0363 -0.5846,0.15459 -0.690927,-0.0946 -0.08855,-0.20678 0.08995,-0.61685 0.280525,-0.74571 z"
           style="opacity:1;fill:#b06264;fill-opacity:1;stroke:none;stroke-width:0.21597479;stroke-linecap:round;stroke-miterlimit:4;stroke-dasharray:none;stroke-opacity:1" />
        <path
           style="opacity:1;fill:#fffefe;fill-opacity:1;stroke:none;stroke-width:0.80323011;stroke-linecap:round;stroke-miterlimit:4;stroke-dasharray:none;stroke-opacity:1"
           d="m 40.745102,284.48097 a 4.5864723,4.6615409 0.12912279 0 1 -4.527883,4.72071 4.5864723,4.6615409 0.12912279 0 1 -4.644328,-4.60161 4.5864723,4.6615409 0.12912279 0 1 4.527887,-4.72074 4.5864723,4.6615409 0.12912279 0 1 4.644324,4.60164 z"
           id="path1046"
           inkscape:connector-curvature="0" />
        <path
           style="fill:#000000;fill-opacity:1;stroke:none;stroke-width:0.94682908;stroke-miterlimit:4;stroke-dasharray:none;stroke-opacity:1"
           d="m 36.367398,288.22315 c -1.977334,0.12075 -3.676973,-1.40935 -3.797367,-3.41892 -0.120427,-2.00954 1.383999,-3.73838 3.361132,-3.8625 1.977125,-0.12398 3.679178,1.4034 3.803093,3.41861 0.117579,2.01556 -1.389539,3.74192 -3.366858,3.86281 z"
           id="path1048"
           inkscape:connector-curvature="0"
           sodipodi:nodetypes="ssscs"
           inkscape:export-filename="/home/ash/Downloads/benthos.png"
           inkscape:export-xdpi="250.44547"
           inkscape:export-ydpi="250.44547" />
        <path
           style="fill:#ffffff;fill-opacity:1;stroke:none;stroke-width:0.52239025px;stroke-linecap:butt;stroke-linejoin:miter;stroke-opacity:1"
           d="m 36.760476,282.22487 c 0.345007,-0.47289 1.599293,-0.0531 2.038665,0.73313 0.439369,0.78592 0.435478,1.99342 -0.292623,2.23716 -0.728171,0.2434 -0.674872,-0.70511 -1.056483,-1.37373 -0.381719,-0.66865 -1.034699,-1.12367 -0.689599,-1.59641 z"
           id="path1050"
           inkscape:connector-curvature="0"
           sodipodi:nodetypes="zzzzz" />
        <ellipse
           style="opacity:1;fill:#ffffff;fill-opacity:1;stroke:none;stroke-width:2.36576986;stroke-linecap:round;stroke-linejoin:miter;stroke-miterlimit:4;stroke-dasharray:none;stroke-dashoffset:0;stroke-opacity:1"
           id="ellipse1052"
           cx="61.781799"
           cy="283.3205"
           rx="0.46593422"
           ry="0.56576961"
           transform="matrix(0.99826127,0.05894442,-0.08221311,0.99661477,0,0)" />
        <path
           inkscape:connector-curvature="0"
           id="path1054"
           d="m 51.116029,284.12086 a 5.9568628,6.2705588 85.954687 0 1 -5.875038,6.34642 5.9568628,6.2705588 85.954687 0 1 -6.639655,-5.53318 5.9568628,6.2705588 85.954687 0 1 5.864445,-6.35529 5.9568628,6.2705588 85.954687 0 1 6.649015,5.52301"
           style="fill:#ffc7c7;fill-opacity:1;stroke:none;stroke-width:0.21777755" />
        <path
           sodipodi:nodetypes="cccczcccczc"
           inkscape:connector-curvature="0"
           id="path1056"
           d="m 50.593938,286.22616 c -0.734745,2.18783 -2.817969,3.8397 -5.369265,4.00487 -3.316521,0.21528 -6.169808,-2.16326 -6.374682,-5.31384 -0.09341,-1.43724 0.380482,-2.78724 1.238377,-3.85123 0,0 0.540259,-0.61012 0.213515,-0.86932 -0.326735,-0.25934 -0.792006,0.46782 -0.792006,0.46782 -0.95489,1.18974 -1.481726,2.69696 -1.377118,4.30131 0.230739,3.52596 3.424456,6.18712 7.136218,5.94618 2.859414,-0.18544 5.19347,-2.03921 6.012974,-4.49299 0,0 0.192385,-0.50276 -0.144999,-0.62339 -0.337374,-0.12064 -0.543051,0.43059 -0.543051,0.43059 z"
           style="fill:#b06264;fill-opacity:1;stroke:none;stroke-width:0.23408552" />
        <path
           inkscape:connector-curvature="0"
           id="path1058"
           d="m 60.746333,284.43587 a 4.5864726,4.6615411 0.129123 0 1 -4.52789,4.72071 4.5864726,4.6615411 0.129123 0 1 -4.644326,-4.60161 4.5864726,4.6615411 0.129123 0 1 4.527886,-4.72074 4.5864726,4.6615411 0.129123 0 1 4.64433,4.60164 z"
           style="opacity:1;fill:#fffefe;fill-opacity:1;stroke:none;stroke-width:0.80323017;stroke-linecap:round;stroke-miterlimit:4;stroke-dasharray:none;stroke-opacity:1" />
        <path
           inkscape:export-ydpi="250.44547"
           inkscape:export-xdpi="250.44547"
           inkscape:export-filename="/home/ash/Downloads/benthos.png"
           sodipodi:nodetypes="ssscs"
           inkscape:connector-curvature="0"
           id="path1060"
           d="m 56.368623,288.17806 c -1.97733,0.12077 -3.676973,-1.40935 -3.797366,-3.41893 -0.120421,-2.00954 1.383996,-3.73838 3.361136,-3.8625 1.97712,-0.12402 3.67917,1.40339 3.80309,3.41861 0.11758,2.01556 -1.38954,3.74191 -3.36686,3.86282 z"
           style="fill:#000000;fill-opacity:1;stroke:none;stroke-width:0.94682908;stroke-miterlimit:4;stroke-dasharray:none;stroke-opacity:1" />
        <path
           sodipodi:nodetypes="zzzzz"
           inkscape:connector-curvature="0"
           id="path1062"
           d="m 56.761703,282.17977 c 0.34501,-0.47289 1.59929,-0.053 2.03866,0.73314 0.43937,0.7859 0.43548,1.99341 -0.29262,2.23715 -0.72817,0.2434 -0.67487,-0.7051 -1.05648,-1.37373 -0.38172,-0.66865 -1.0347,-1.12366 -0.6896,-1.59641 z"
           style="fill:#ffffff;fill-opacity:1;stroke:none;stroke-width:0.52239025px;stroke-linecap:butt;stroke-linejoin:miter;stroke-opacity:1" />
        <ellipse
           transform="matrix(0.99826127,0.05894442,-0.08221311,0.99661477,0,0)"
           ry="0.56576967"
           rx="0.46593422"
           cy="282.09616"
           cx="81.717033"
           id="ellipse1064"
           style="opacity:1;fill:#ffffff;fill-opacity:1;stroke:none;stroke-width:2.36576986;stroke-linecap:round;stroke-linejoin:miter;stroke-miterlimit:4;stroke-dasharray:none;stroke-dashoffset:0;stroke-opacity:1" />
      </g>
    </g>
    <path
       style="fill:url(#linearGradient1507);fill-opacity:1;stroke:none;stroke-width:0.10615081px;stroke-linecap:butt;stroke-linejoin:miter;stroke-opacity:1;opacity:0.156"
       d="m 26.017272,246.45642 c -1.301819,0 -2.263291,6.15635 -2.594674,8.59637 -1.139026,0.14985 -2.270657,0.3908 -3.395141,0.72967 l -0.575159,6.3867 c -1.518103,0.24985 -3.044836,0.59406 -4.581115,1.04386 -3.435511,10.3929 -3.019581,19.60094 -4.094324,29.26746 9.145413,2.73715 19.369804,3.31694 31.54226,0 -0.831463,-9.63539 -1.209465,-19.21384 -3.563607,-29.03957 -1.699668,-0.44531 -3.406376,-0.8162 -5.1201,-1.10691 l -0.718302,-6.39961 c -1.281779,-0.39761 -2.554787,-0.6807 -3.819406,-0.85524 -0.444481,-2.42051 -1.712759,-8.62273 -3.080432,-8.62273 z"
       id="path1426"
       inkscape:connector-curvature="0" />
  </g>
</svg>
