<?xml version="1.0" encoding="UTF-8" standalone="no"?>
<!-- Created with Inkscape (http://www.inkscape.org/) -->

<svg
   xmlns:dc="http://purl.org/dc/elements/1.1/"
   xmlns:cc="http://creativecommons.org/ns#"
   xmlns:rdf="http://www.w3.org/1999/02/22-rdf-syntax-ns#"
   xmlns:svg="http://www.w3.org/2000/svg"
   xmlns="http://www.w3.org/2000/svg"
   xmlns:sodipodi="http://sodipodi.sourceforge.net/DTD/sodipodi-0.dtd"
   xmlns:inkscape="http://www.inkscape.org/namespaces/inkscape"
   width="300"
   height="150"
   viewBox="0 0 79.374995 39.687503"
   version="1.1"
   id="svg4016"
   inkscape:version="0.92.3 (2405546, 2018-03-11)"
   sodipodi:docname="blobextended.svg">
  <defs
     id="defs4010" />
  <sodipodi:namedview
     id="base"
     pagecolor="#ffffff"
     bordercolor="#666666"
     borderopacity="1.0"
     inkscape:pageopacity="0.0"
     inkscape:pageshadow="2"
     inkscape:zoom="0.9899495"
     inkscape:cx="-236.16861"
     inkscape:cy="245.50805"
     inkscape:document-units="mm"
     inkscape:current-layer="layer1"
     showgrid="false"
     units="px"
     inkscape:window-width="2560"
     inkscape:window-height="1323"
     inkscape:window-x="2560"
     inkscape:window-y="27"
     inkscape:window-maximized="1"
     inkscape:snap-nodes="false" />
  <metadata
     id="metadata4013">
    <rdf:RDF>
      <cc:Work
         rdf:about="">
        <dc:format>image/svg+xml</dc:format>
        <dc:type
           rdf:resource="http://purl.org/dc/dcmitype/StillImage" />
        <dc:title></dc:title>
      </cc:Work>
    </rdf:RDF>
  </metadata>
  <g
     inkscape:label="Layer 1"
     inkscape:groupmode="layer"
     id="layer1"
     transform="translate(0,-257.31249)">
    <g
       id="g1481"
       transform="translate(-0.42653775,-0.64505494)">
      <path
         inkscape:export-ydpi="250.44547"
         inkscape:export-xdpi="250.44547"
         inkscape:export-filename="/home/ash/Downloads/benthos.png"
         sodipodi:nodetypes="sszss"
         inkscape:connector-curvature="0"
         id="path1670"
         d="m 23.196057,290.40081 -4.617649,1.90909 c -0.747127,0.30886 -2.037927,-3.08444 -1.031511,-4.67386 1.006375,-1.58934 5.388536,0.20364 5.388536,0.20364 0.45366,0.60301 0.633456,2.40698 0.260624,2.56113 z"
         style="fill:#ff9197;fill-opacity:1;fill-rule:evenodd;stroke:none;stroke-width:0.4083277;stroke-miterlimit:4;stroke-dasharray:none;stroke-opacity:1" />
      <path
         sodipodi:nodetypes="ccccccccc"
         inkscape:connector-curvature="0"
         id="path847"
         d="m 51.739328,279.51529 c 9.077275,-4.63535 16.085081,-11.0084 21.703984,-18.54763 -0.781238,4.24893 -0.8646,8.40424 2.254412,12.12989 -3.204053,2.04785 -5.508575,5.19387 -6.564299,9.86445 -3.448117,-0.45199 -6.777046,-0.0731 -9.676629,3.2988 -1.307054,-2.51396 -2.994729,-3.92174 -5.618535,-2.6089 l -2.074644,0.14336 -0.939936,-3.6662 z"
         style="fill:#d97f84;fill-opacity:1;stroke:none;stroke-width:0.13328815px;stroke-linecap:butt;stroke-linejoin:miter;stroke-opacity:1" />
      <path
         style="fill:#d97f84;fill-opacity:1;stroke:none;stroke-width:0.09737433px;stroke-linecap:butt;stroke-linejoin:miter;stroke-opacity:1"
         d="m 21.009938,278.69307 c -6.24373,-3.59666 -11.0639919,-8.54162 -14.9289083,-14.39149 0.5373677,3.29683 0.5947078,6.52103 -1.5506782,9.41183 2.2038804,1.58897 3.7890274,4.03004 4.5151987,7.65403 2.3717598,-0.35071 4.6615368,-0.0568 6.6559908,2.55962 0.899047,-1.95064 2.0599,-3.04296 3.864663,-2.0243 l 1.427028,0.11122 0.646526,-2.84467 z"
         id="path849"
         inkscape:connector-curvature="0"
         sodipodi:nodetypes="ccccccccc" />
      <path
         inkscape:export-ydpi="250.44547"
         inkscape:export-xdpi="250.44547"
         inkscape:export-filename="/home/ash/Downloads/benthos.png"
         sodipodi:nodetypes="sszzcssssss"
         inkscape:connector-curvature="0"
         id="path1672"
         d="m 20.097305,290.11724 c 1.884958,4.89755 7.570174,2.2375 8.84564,2.09787 1.031592,-0.11269 2.691739,0.83466 4.992859,0.90939 2.301116,0.0745 4.487006,-0.50358 6.464466,-0.21991 1.977456,0.28367 4.118039,2.93269 10.356453,1.07353 5.297365,-1.59856 8.400314,-4.28879 2.641417,-10.30088 -1.497564,-1.5634 -2.4948,-6.50797 -5.587768,-8.71784 -3.522461,-2.51673 -9.912215,-3.39948 -12.849507,-3.39948 -2.495705,0 -4.750397,2.24046 -7.122973,3.83384 -1.837037,1.23373 -3.948018,1.77465 -5.013224,2.51187 -6.067217,4.1991 -4.071526,8.71916 -2.727363,12.21161 z"
         style="fill:#ffc7c7;fill-opacity:1;fill-rule:evenodd;stroke:none;stroke-width:0.4083277;stroke-miterlimit:4;stroke-dasharray:none;stroke-opacity:1" />
      <path
         inkscape:export-ydpi="250.44547"
         inkscape:export-xdpi="250.44547"
         inkscape:export-filename="/home/ash/Downloads/benthos.png"
         style="fill:#ff9197;fill-opacity:1;fill-rule:evenodd;stroke:none;stroke-width:0.4083277;stroke-miterlimit:4;stroke-dasharray:none;stroke-opacity:1"
         d="m 49.703818,291.1071 5.635184,3.44632 c 0.91177,0.55765 3.01471,-3.21246 1.943564,-5.52153 -1.071145,-2.30913 -6.901338,-0.79323 -6.901338,-0.79323 -0.659412,0.71122 -1.132401,2.59018 -0.67741,2.86844 z"
         id="path1674"
         inkscape:connector-curvature="0"
         sodipodi:nodetypes="sszss" />
      <g
         id="g1698"
         transform="matrix(0.60835716,0,0,0.60835716,18.26563,203.44132)">
        <path
           sodipodi:nodetypes="cszzzzzszszc"
           inkscape:connector-curvature="0"
           id="path1676"
           d="m 8.1044741,142.94171 c 0.216042,-0.14647 6.9476509,-5.63435 13.0094799,-5.74633 4.111955,-0.0765 7.560345,-0.51357 12.552087,1.55116 4.991732,2.06495 10.614035,6.10999 10.760445,6.19962 0.14638,0.0892 0.24354,0.5982 0.13774,0.82525 -0.10579,0.22673 -0.44769,0.15871 -0.57062,0.0776 -0.12295,-0.0814 -6.247324,-3.71399 -10.484985,-5.46672 -4.23766,-1.75273 -7.87492,-1.547 -12.552076,-1.55116 -6.062888,-0.007 -12.1911639,5.02803 -12.3867999,5.06296 -0.195658,0.0412 -0.662729,0.17525 -0.783266,-0.10721 -0.100386,-0.23442 0.101974,-0.69929 0.318016,-0.84537 z"
           style="opacity:1;fill:#b06264;fill-opacity:1;stroke:none;stroke-width:0.2448387;stroke-linecap:round;stroke-miterlimit:4;stroke-dasharray:none;stroke-opacity:1" />
        <path
           style="opacity:1;fill:#fffefe;fill-opacity:1;stroke:none;stroke-width:0.91057765;stroke-linecap:round;stroke-miterlimit:4;stroke-dasharray:none;stroke-opacity:1"
           d="m 18.07067,130.45115 a 5.1994305,5.2845316 0.12912279 0 1 -5.133011,5.35161 5.1994305,5.2845316 0.12912279 0 1 -5.2650189,-5.21659 5.1994305,5.2845316 0.12912279 0 1 5.1330159,-5.35165 5.1994305,5.2845316 0.12912279 0 1 5.265014,5.21663 z"
           id="path1678"
           inkscape:connector-curvature="0" />
        <path
           style="fill:#000000;fill-opacity:1;stroke:none;stroke-width:1.07336783;stroke-miterlimit:4;stroke-dasharray:none;stroke-opacity:1"
           d="m 13.107908,134.69345 c -2.241594,0.13689 -4.1683809,-1.5977 -4.3048649,-3.87584 -0.136521,-2.2781 1.5689629,-4.23799 3.8103299,-4.3787 2.241358,-0.14055 4.170881,1.59095 4.311357,3.87549 0.133292,2.28492 -1.575244,4.242 -3.816822,4.37905 z"
           id="path1680"
           inkscape:connector-curvature="0"
           sodipodi:nodetypes="ssscs"
           inkscape:export-filename="/home/ash/Downloads/benthos.png"
           inkscape:export-xdpi="250.44547"
           inkscape:export-ydpi="250.44547" />
        <path
           style="fill:#ffffff;fill-opacity:1;stroke:none;stroke-width:0.59220499px;stroke-linecap:butt;stroke-linejoin:miter;stroke-opacity:1"
           d="m 13.553519,127.89353 c 0.391116,-0.53609 1.813031,-0.0602 2.311122,0.83111 0.498089,0.89095 0.493678,2.25983 -0.33173,2.53615 -0.825488,0.27592 -0.765065,-0.79935 -1.197677,-1.55733 -0.432733,-0.75801 -1.172981,-1.27384 -0.78176,-1.80976 z"
           id="path1682"
           inkscape:connector-curvature="0"
           sodipodi:nodetypes="zzzzz" />
        <ellipse
           style="opacity:1;fill:#ffffff;fill-opacity:1;stroke:none;stroke-width:2.6819427;stroke-linecap:round;stroke-linejoin:miter;stroke-miterlimit:4;stroke-dasharray:none;stroke-dashoffset:0;stroke-opacity:1"
           id="ellipse1684"
           cx="26.213116"
           cy="131.07529"
           rx="0.5282039"
           ry="0.6413818"
           transform="matrix(0.99826127,0.05894442,-0.08221311,0.99661477,0,0)" />
        <path
           inkscape:connector-curvature="0"
           id="path1686"
           d="m 29.827617,130.04291 a 6.7529665,7.1085864 85.954687 0 1 -6.660206,7.19459 6.7529665,7.1085864 85.954687 0 1 -7.52701,-6.27266 6.7529665,7.1085864 85.954687 0 1 6.648197,-7.20465 6.7529665,7.1085864 85.954687 0 1 7.537621,6.26114"
           style="fill:#ffc7c7;fill-opacity:1;stroke:none;stroke-width:0.24688239" />
        <path
           sodipodi:nodetypes="cccczcccczc"
           inkscape:connector-curvature="0"
           id="path1688"
           d="m 29.235752,132.42957 c -0.83294,2.48023 -3.194576,4.35286 -6.08684,4.5401 -3.759757,0.24406 -6.994371,-2.45237 -7.226625,-6.024 -0.105893,-1.62932 0.431332,-3.15974 1.40388,-4.36593 0,0 0.612462,-0.69166 0.24205,-0.9855 -0.370402,-0.294 -0.897853,0.53034 -0.897853,0.53034 -1.082507,1.34874 -1.679752,3.0574 -1.561163,4.87616 0.261576,3.99718 3.882116,7.014 8.089936,6.74086 3.24156,-0.21023 5.88755,-2.31175 6.816577,-5.09346 0,0 0.218096,-0.56995 -0.164377,-0.7067 -0.382463,-0.13676 -0.615627,0.48813 -0.615627,0.48813 z"
           style="fill:#b06264;fill-opacity:1;stroke:none;stroke-width:0.26536983" />
        <path
           inkscape:connector-curvature="0"
           id="path1690"
           d="m 40.744956,130.40002 a 5.1994308,5.2845318 0.129123 0 1 -5.133011,5.35161 5.1994308,5.2845318 0.129123 0 1 -5.265019,-5.21659 5.1994308,5.2845318 0.129123 0 1 5.133017,-5.35165 5.1994308,5.2845318 0.129123 0 1 5.265013,5.21663 z"
           style="opacity:1;fill:#fffefe;fill-opacity:1;stroke:none;stroke-width:0.91057771;stroke-linecap:round;stroke-miterlimit:4;stroke-dasharray:none;stroke-opacity:1" />
        <path
           inkscape:export-ydpi="250.44547"
           inkscape:export-xdpi="250.44547"
           inkscape:export-filename="/home/ash/Downloads/benthos.png"
           sodipodi:nodetypes="ssscs"
           inkscape:connector-curvature="0"
           id="path1692"
           d="m 35.782194,134.64233 c -2.241594,0.13691 -4.168382,-1.5977 -4.304865,-3.87585 -0.136515,-2.2781 1.568963,-4.23799 3.81033,-4.3787 2.241358,-0.14059 4.170881,1.59095 4.311357,3.87549 0.133294,2.28493 -1.575244,4.242 -3.816822,4.37906 z"
           style="fill:#000000;fill-opacity:1;stroke:none;stroke-width:1.07336783;stroke-miterlimit:4;stroke-dasharray:none;stroke-opacity:1" />
        <path
           sodipodi:nodetypes="zzzzz"
           inkscape:connector-curvature="0"
           id="path1694"
           d="m 36.227805,127.84241 c 0.391117,-0.53609 1.81303,-0.0601 2.311123,0.83111 0.498088,0.89094 0.493677,2.25982 -0.331731,2.53614 -0.825488,0.27593 -0.765065,-0.79934 -1.197676,-1.55732 -0.432734,-0.75801 -1.172982,-1.27384 -0.781761,-1.80977 z"
           style="fill:#ffffff;fill-opacity:1;stroke:none;stroke-width:0.59220499px;stroke-linecap:butt;stroke-linejoin:miter;stroke-opacity:1" />
        <ellipse
           transform="matrix(0.99826127,0.05894442,-0.08221311,0.99661477,0,0)"
           ry="0.64138186"
           rx="0.5282039"
           cy="129.68732"
           cx="48.812588"
           id="ellipse1696"
           style="opacity:1;fill:#ffffff;fill-opacity:1;stroke:none;stroke-width:2.6819427;stroke-linecap:round;stroke-linejoin:miter;stroke-miterlimit:4;stroke-dasharray:none;stroke-dashoffset:0;stroke-opacity:1" />
      </g>
      <path
         inkscape:connector-curvature="0"
         id="path940"
         d="m 22.124893,268.56425 c 0.06959,0.25109 6.124606,7.73345 6.124606,7.73345"
         style="fill:none;stroke:#572100;stroke-width:0.66994172;stroke-linecap:round;stroke-linejoin:miter;stroke-miterlimit:4;stroke-dasharray:none;stroke-opacity:1" />
      <path
         inkscape:connector-curvature="0"
         id="path942"
         d="m 21.939258,268.52755 -1.734251,8.19696 5.102455,-3.91545 z"
         style="fill:#1effb3;fill-opacity:1;stroke:none;stroke-width:0.06496914px;stroke-linecap:butt;stroke-linejoin:miter;stroke-opacity:1" />
      <g
         transform="matrix(0.17166936,0.05851409,-0.05851409,0.17166936,43.774639,234.82382)"
         id="g953">
        <path
           style="fill:#ff5d57;fill-opacity:1;stroke:none;stroke-width:0.26458332px;stroke-linecap:butt;stroke-linejoin:miter;stroke-opacity:1"
           d="m 144.41759,194.23934 -30.20146,44.76765 c -0.0857,2.90799 0.65792,5.26314 4.81086,5.34539 l 44.634,-33.00779 c -6.22963,-3.94965 -11.11608,-5.76329 -19.2434,-17.10525 z"
           id="path944"
           inkscape:connector-curvature="0"
           sodipodi:nodetypes="ccccc" />
        <path
           style="fill:#b21914;fill-opacity:1;stroke:none;stroke-width:0.26458332px;stroke-linecap:butt;stroke-linejoin:miter;stroke-opacity:1"
           d="m 144.41759,194.23934 c 12.75077,0.57132 17.09039,8.07203 19.2434,17.10525 -13.68873,-2.63985 -16.84546,-7.12035 -19.2434,-17.10525 z"
           id="path949"
           inkscape:connector-curvature="0"
           sodipodi:nodetypes="ccc" />
      </g>
      <g
         transform="matrix(0.31650792,0,0,0.31650792,60.293135,210.78504)"
         id="g981">
        <path
           style="fill:#dd1eff;fill-opacity:1;stroke:none;stroke-width:0.18447037px;stroke-linecap:butt;stroke-linejoin:miter;stroke-opacity:1"
           d="m -80.116819,196.75906 c 1.356871,1.98491 3.166619,3.63115 6.944579,4.66717 4.880606,1.3384 10.946797,1.81388 16.041927,1.24276 3.761211,-0.4216 5.968369,-1.64647 7.803695,-3.28264 0,0 -2.329242,-14.19632 -12.51217,-16.06113 -0.140354,-0.0257 -0.285041,-0.0315 -0.429987,-0.0448 -0.160517,-0.0147 -0.321884,-0.0641 -0.477838,-0.0367 -3.617258,0.63649 -17.370206,13.51525 -17.370206,13.51525 z"
           id="path955"
           inkscape:connector-curvature="0"
           sodipodi:nodetypes="csscssscc" />
        <path
           sodipodi:nodetypes="cccc"
           inkscape:connector-curvature="0"
           id="path957"
           d="m -57.229667,202.67998 c 3.80361,-0.4152 7.07647,-1.41014 8.927936,-3.0607 0,0 -1.001015,-15.15703 -13.967044,-16.33881 3.053274,1.59603 5.217551,12.74719 5.039108,19.39951 z"
           style="fill:#1effaa;fill-opacity:1;stroke:none;stroke-width:0.18447037px;stroke-linecap:butt;stroke-linejoin:miter;stroke-opacity:1" />
        <path
           sodipodi:nodetypes="cccc"
           inkscape:connector-curvature="0"
           id="path959"
           d="m -81.374636,196.85222 c 1.361003,1.99097 4.443135,3.54745 8.23693,4.58346 0.931409,-6.64364 5.584512,-16.74354 10.868931,-18.15521 -12.966029,-1.18178 -19.105861,13.57175 -19.105861,13.57175 z"
           style="fill:#f8ff1e;fill-opacity:1;stroke:none;stroke-width:0.18447037px;stroke-linecap:butt;stroke-linejoin:miter;stroke-opacity:1" />
        <path
           style="fill:none;stroke:#000000;stroke-width:0.67875648;stroke-linecap:round;stroke-linejoin:miter;stroke-miterlimit:4;stroke-dasharray:none;stroke-opacity:1"
           d="m -62.174244,181.68812 -0.107993,1.5433"
           id="path966"
           inkscape:connector-curvature="0" />
        <ellipse
           style="opacity:1;fill:#dd1eff;fill-opacity:1;stroke:none;stroke-width:0.5847367;stroke-linecap:round;stroke-linejoin:miter;stroke-miterlimit:4;stroke-dasharray:none;stroke-dashoffset:0;stroke-opacity:1"
           id="path968"
           cx="-51.250042"
           cy="184.2164"
           rx="3.5804043"
           ry="1.4963666"
           transform="rotate(2.274264)" />
        <ellipse
           ry="1.4963666"
           rx="3.5804043"
           cy="185.69287"
           cx="-53.157581"
           id="ellipse970"
           style="opacity:1;fill:#1effaa;fill-opacity:1;stroke:none;stroke-width:0.5847367;stroke-linecap:round;stroke-linejoin:miter;stroke-miterlimit:4;stroke-dasharray:none;stroke-dashoffset:0;stroke-opacity:1"
           transform="rotate(3.9711978)" />
      </g>
    </g>
  </g>
</svg>
