<?xml version="1.0" encoding="UTF-8" standalone="no"?>
<!-- Created with Inkscape (http://www.inkscape.org/) -->

<svg
   xmlns:dc="http://purl.org/dc/elements/1.1/"
   xmlns:cc="http://creativecommons.org/ns#"
   xmlns:rdf="http://www.w3.org/1999/02/22-rdf-syntax-ns#"
   xmlns:svg="http://www.w3.org/2000/svg"
   xmlns="http://www.w3.org/2000/svg"
   xmlns:sodipodi="http://sodipodi.sourceforge.net/DTD/sodipodi-0.dtd"
   xmlns:inkscape="http://www.inkscape.org/namespaces/inkscape"
   width="250"
   height="200"
   viewBox="0 0 66.14583 52.91667"
   version="1.1"
   id="svg4016"
   inkscape:version="0.92.3 (2405546, 2018-03-11)"
   sodipodi:docname="blobreliable.svg">
  <defs
     id="defs4010" />
  <sodipodi:namedview
     id="base"
     pagecolor="#ffffff"
     bordercolor="#666666"
     borderopacity="1.0"
     inkscape:pageopacity="0.0"
     inkscape:pageshadow="2"
     inkscape:zoom="1.979899"
     inkscape:cx="-5.947859"
     inkscape:cy="-21.172478"
     inkscape:document-units="mm"
     inkscape:current-layer="layer1"
     showgrid="false"
     units="px"
     inkscape:window-width="2560"
     inkscape:window-height="1323"
     inkscape:window-x="2560"
     inkscape:window-y="27"
     inkscape:window-maximized="1"
     inkscape:snap-nodes="false" />
  <metadata
     id="metadata4013">
    <rdf:RDF>
      <cc:Work
         rdf:about="">
        <dc:format>image/svg+xml</dc:format>
        <dc:type
           rdf:resource="http://purl.org/dc/dcmitype/StillImage" />
        <dc:title />
      </cc:Work>
    </rdf:RDF>
  </metadata>
  <g
     inkscape:label="Layer 1"
     inkscape:groupmode="layer"
     id="layer1"
     transform="translate(0,-244.08332)">
    <path
       sodipodi:nodetypes="cc"
       inkscape:connector-curvature="0"
       id="path850"
       d="m 48.680995,261.34379 c 0.887257,7.89321 0.189875,16.71039 4.094255,23.45422"
       style="fill:none;stroke:#000000;stroke-width:0.23160583px;stroke-linecap:round;stroke-linejoin:miter;stroke-opacity:1" />
    <path
       style="fill:none;stroke:#000000;stroke-width:0.23160583px;stroke-linecap:round;stroke-linejoin:miter;stroke-opacity:1"
       d="m 39.907597,261.34379 c 0.887256,7.89321 0.189875,16.71039 4.094254,23.45422"
       id="path852"
       inkscape:connector-curvature="0"
       sodipodi:nodetypes="cc" />
    <path
       style="opacity:1;fill:#c76262;fill-opacity:1;stroke:none;stroke-width:0.09778758;stroke-linecap:round;stroke-linejoin:miter;stroke-miterlimit:4;stroke-dasharray:none;stroke-dashoffset:0;stroke-opacity:1"
       d="M 43.014716,280.314 H 31.634529 c 6.498265,1.59102 11.162948,4.1471 14.961971,7.15877 h 11.380187 c -4.760482,-2.95334 -9.382658,-6.2525 -14.961971,-7.15877 z"
       id="path854"
       inkscape:connector-curvature="0"
       sodipodi:nodetypes="ccccc" />
    <path
       sodipodi:nodetypes="ccccccccczccz"
       inkscape:connector-curvature="0"
       id="path856"
       d="m 37.304292,260.41088 v 30.99942 c 4.735981,0 9.471953,0 14.207935,0 v -30.99942 h -5.327979 v 5.16646 h -3.551977 v -5.16646 z m 6.982848,14.81149 c 5.672828,0 4.924368,7.14904 4.924368,7.14904 h -9.727621 c 0,0 -0.869574,-7.14904 4.803253,-7.14904 z"
       style="fill:#fda6a6;fill-opacity:1;stroke:none;stroke-width:0.15983263px;stroke-linecap:butt;stroke-linejoin:miter;stroke-opacity:1" />
    <path
       sodipodi:nodetypes="cc"
       inkscape:connector-curvature="0"
       id="path858"
       d="m 35.75486,250.05536 c 0.987381,10.60149 0.21617,21.05552 4.474423,30.35595"
       style="fill:none;stroke:#000000;stroke-width:0.34740874;stroke-linecap:round;stroke-linejoin:miter;stroke-miterlimit:4;stroke-dasharray:none;stroke-opacity:1" />
    <path
       style="fill:none;stroke:#000000;stroke-width:0.34740874;stroke-linecap:round;stroke-linejoin:miter;stroke-miterlimit:4;stroke-dasharray:none;stroke-opacity:1"
       d="m 22.815252,249.46448 c 0.987381,10.60148 0.216171,21.05552 4.474423,30.35594"
       id="path860"
       inkscape:connector-curvature="0"
       sodipodi:nodetypes="cc" />
    <path
       style="fill:#ffc7c7;fill-opacity:1;stroke:none;stroke-width:0.23160583px;stroke-linecap:butt;stroke-linejoin:miter;stroke-opacity:1"
       d="m 18.977146,248.73587 v 44.91977 c 6.862678,0 13.725357,0 20.588036,0 v -44.91977 h -7.720515 v 7.48647 H 26.69766 v -7.48647 z m 10.118503,21.46261 c 8.220224,0 7.135678,9.86217 7.135678,9.86217 H 22.135491 c 0,0 -1.260065,-9.86217 6.960158,-9.86217 z"
       id="path862"
       inkscape:connector-curvature="0"
       sodipodi:nodetypes="ccccccccczccz" />
    <path
       sodipodi:nodetypes="ccccc"
       inkscape:connector-curvature="0"
       id="path864"
       d="m 21.355107,279.99012 h 15.003757 c -8.567385,2.46284 -14.717346,6.41955 -19.726016,11.08151 H 1.6290911 C 7.9053753,286.49997 13.999286,281.393 21.355107,279.99012 Z"
       style="opacity:1;fill:#ff8484;fill-opacity:1;stroke:none;stroke-width:0.13969772;stroke-linecap:round;stroke-linejoin:miter;stroke-miterlimit:4;stroke-dasharray:none;stroke-dashoffset:0;stroke-opacity:1" />
    <path
       sodipodi:nodetypes="cc"
       inkscape:connector-curvature="0"
       id="path866"
       d="m 22.830632,250.13906 c -1.484087,12.0806 -3.683395,24.25196 -11.526224,34.22011"
       style="fill:none;stroke:#000000;stroke-width:0.45941371;stroke-linecap:round;stroke-linejoin:miter;stroke-miterlimit:4;stroke-dasharray:none;stroke-opacity:1" />
    <g
       id="g890"
       transform="matrix(0.40556345,-0.0020273,0.0020273,0.40556345,18.369733,209.04127)">
      <path
         sodipodi:nodetypes="cszzzzzszszc"
         inkscape:connector-curvature="0"
         id="path868"
         d="m 8.1044741,142.94171 c 0.216042,-0.14647 6.9476509,-5.63435 13.0094799,-5.74633 4.111955,-0.0765 7.560345,-0.51357 12.552087,1.55116 4.991732,2.06495 10.614035,6.10999 10.760445,6.19962 0.14638,0.0892 0.24354,0.5982 0.13774,0.82525 -0.10579,0.22673 -0.44769,0.15871 -0.57062,0.0776 -0.12295,-0.0814 -6.247324,-3.71399 -10.484985,-5.46672 -4.23766,-1.75273 -7.87492,-1.547 -12.552076,-1.55116 -6.062888,-0.007 -12.1911639,5.02803 -12.3867999,5.06296 -0.195658,0.0412 -0.662729,0.17525 -0.783266,-0.10721 -0.100386,-0.23442 0.101974,-0.69929 0.318016,-0.84537 z"
         style="opacity:1;fill:#b06264;fill-opacity:1;stroke:none;stroke-width:0.2448387;stroke-linecap:round;stroke-miterlimit:4;stroke-dasharray:none;stroke-opacity:1" />
      <path
         style="opacity:1;fill:#fffefe;fill-opacity:1;stroke:none;stroke-width:0.91057765;stroke-linecap:round;stroke-miterlimit:4;stroke-dasharray:none;stroke-opacity:1"
         d="m 18.07067,130.45115 a 5.1994305,5.2845316 0.12912279 0 1 -5.133011,5.35161 5.1994305,5.2845316 0.12912279 0 1 -5.2650189,-5.21659 5.1994305,5.2845316 0.12912279 0 1 5.1330159,-5.35165 5.1994305,5.2845316 0.12912279 0 1 5.265014,5.21663 z"
         id="path870"
         inkscape:connector-curvature="0" />
      <path
         style="fill:#000000;fill-opacity:1;stroke:none;stroke-width:1.07336783;stroke-miterlimit:4;stroke-dasharray:none;stroke-opacity:1"
         d="m 13.107908,134.69345 c -2.241594,0.13689 -4.1683809,-1.5977 -4.3048649,-3.87584 -0.136521,-2.2781 1.5689629,-4.23799 3.8103299,-4.3787 2.241358,-0.14055 4.170881,1.59095 4.311357,3.87549 0.133292,2.28492 -1.575244,4.242 -3.816822,4.37905 z"
         id="path872"
         inkscape:connector-curvature="0"
         sodipodi:nodetypes="ssscs"
         inkscape:export-filename="/home/ash/Downloads/benthos.png"
         inkscape:export-xdpi="250.44547"
         inkscape:export-ydpi="250.44547" />
      <path
         style="fill:#ffffff;fill-opacity:1;stroke:none;stroke-width:0.59220499px;stroke-linecap:butt;stroke-linejoin:miter;stroke-opacity:1"
         d="m 13.553519,127.89353 c 0.391116,-0.53609 1.813031,-0.0602 2.311122,0.83111 0.498089,0.89095 0.493678,2.25983 -0.33173,2.53615 -0.825488,0.27592 -0.765065,-0.79935 -1.197677,-1.55733 -0.432733,-0.75801 -1.172981,-1.27384 -0.78176,-1.80976 z"
         id="path874"
         inkscape:connector-curvature="0"
         sodipodi:nodetypes="zzzzz" />
      <ellipse
         style="opacity:1;fill:#ffffff;fill-opacity:1;stroke:none;stroke-width:2.6819427;stroke-linecap:round;stroke-linejoin:miter;stroke-miterlimit:4;stroke-dasharray:none;stroke-dashoffset:0;stroke-opacity:1"
         id="ellipse876"
         cx="26.213116"
         cy="131.07529"
         rx="0.5282039"
         ry="0.6413818"
         transform="matrix(0.99826127,0.05894442,-0.08221311,0.99661477,0,0)" />
      <path
         inkscape:connector-curvature="0"
         id="path878"
         d="m 29.827617,130.04291 a 6.7529665,7.1085864 85.954687 0 1 -6.660206,7.19459 6.7529665,7.1085864 85.954687 0 1 -7.52701,-6.27266 6.7529665,7.1085864 85.954687 0 1 6.648197,-7.20465 6.7529665,7.1085864 85.954687 0 1 7.537621,6.26114"
         style="fill:#ffc7c7;fill-opacity:1;stroke:none;stroke-width:0.24688239" />
      <path
         sodipodi:nodetypes="cccczcccczc"
         inkscape:connector-curvature="0"
         id="path880"
         d="m 29.235752,132.42957 c -0.83294,2.48023 -3.194576,4.35286 -6.08684,4.5401 -3.759757,0.24406 -6.994371,-2.45237 -7.226625,-6.024 -0.105893,-1.62932 0.431332,-3.15974 1.40388,-4.36593 0,0 0.612462,-0.69166 0.24205,-0.9855 -0.370402,-0.294 -0.897853,0.53034 -0.897853,0.53034 -1.082507,1.34874 -1.679752,3.0574 -1.561163,4.87616 0.261576,3.99718 3.882116,7.014 8.089936,6.74086 3.24156,-0.21023 5.88755,-2.31175 6.816577,-5.09346 0,0 0.218096,-0.56995 -0.164377,-0.7067 -0.382463,-0.13676 -0.615627,0.48813 -0.615627,0.48813 z"
         style="fill:#b06264;fill-opacity:1;stroke:none;stroke-width:0.26536983" />
      <path
         inkscape:connector-curvature="0"
         id="path882"
         d="m 40.744956,130.40002 a 5.1994308,5.2845318 0.129123 0 1 -5.133011,5.35161 5.1994308,5.2845318 0.129123 0 1 -5.265019,-5.21659 5.1994308,5.2845318 0.129123 0 1 5.133017,-5.35165 5.1994308,5.2845318 0.129123 0 1 5.265013,5.21663 z"
         style="opacity:1;fill:#fffefe;fill-opacity:1;stroke:none;stroke-width:0.91057771;stroke-linecap:round;stroke-miterlimit:4;stroke-dasharray:none;stroke-opacity:1" />
      <path
         inkscape:export-ydpi="250.44547"
         inkscape:export-xdpi="250.44547"
         inkscape:export-filename="/home/ash/Downloads/benthos.png"
         sodipodi:nodetypes="ssscs"
         inkscape:connector-curvature="0"
         id="path884"
         d="m 35.782194,134.64233 c -2.241594,0.13691 -4.168382,-1.5977 -4.304865,-3.87585 -0.136515,-2.2781 1.568963,-4.23799 3.81033,-4.3787 2.241358,-0.14059 4.170881,1.59095 4.311357,3.87549 0.133294,2.28493 -1.575244,4.242 -3.816822,4.37906 z"
         style="fill:#000000;fill-opacity:1;stroke:none;stroke-width:1.07336783;stroke-miterlimit:4;stroke-dasharray:none;stroke-opacity:1" />
      <path
         sodipodi:nodetypes="zzzzz"
         inkscape:connector-curvature="0"
         id="path886"
         d="m 36.227805,127.84241 c 0.391117,-0.53609 1.81303,-0.0601 2.311123,0.83111 0.498088,0.89094 0.493677,2.25982 -0.331731,2.53614 -0.825488,0.27593 -0.765065,-0.79934 -1.197676,-1.55732 -0.432734,-0.75801 -1.172982,-1.27384 -0.781761,-1.80977 z"
         style="fill:#ffffff;fill-opacity:1;stroke:none;stroke-width:0.59220499px;stroke-linecap:butt;stroke-linejoin:miter;stroke-opacity:1" />
      <ellipse
         transform="matrix(0.99826127,0.05894442,-0.08221311,0.99661477,0,0)"
         ry="0.64138186"
         rx="0.5282039"
         cy="129.68732"
         cx="48.812588"
         id="ellipse888"
         style="opacity:1;fill:#ffffff;fill-opacity:1;stroke:none;stroke-width:2.6819427;stroke-linecap:round;stroke-linejoin:miter;stroke-miterlimit:4;stroke-dasharray:none;stroke-dashoffset:0;stroke-opacity:1" />
    </g>
    <path
       style="fill:none;stroke:#000000;stroke-width:0.46321172;stroke-linecap:round;stroke-linejoin:miter;stroke-miterlimit:4;stroke-dasharray:none;stroke-opacity:1"
       d="m 35.639793,250.13906 c -1.484086,12.0806 -3.341868,24.89535 -11.184698,34.86349"
       id="path892"
       inkscape:connector-curvature="0"
       sodipodi:nodetypes="cc" />
    <path
       sodipodi:nodetypes="cc"
       inkscape:connector-curvature="0"
       id="path894"
       d="m 48.680995,261.40228 c -0.316591,8.31058 -0.751627,16.85388 -3.499324,19.54252"
       style="fill:none;stroke:#000000;stroke-width:0.23160583;stroke-linecap:round;stroke-linejoin:miter;stroke-miterlimit:4;stroke-dasharray:none;stroke-opacity:1" />
  </g>
</svg>
