<?xml version="1.0" encoding="UTF-8" standalone="no"?>
<!-- Created with Inkscape (http://www.inkscape.org/) -->

<svg
   xmlns:dc="http://purl.org/dc/elements/1.1/"
   xmlns:cc="http://creativecommons.org/ns#"
   xmlns:rdf="http://www.w3.org/1999/02/22-rdf-syntax-ns#"
   xmlns:svg="http://www.w3.org/2000/svg"
   xmlns="http://www.w3.org/2000/svg"
   xmlns:xlink="http://www.w3.org/1999/xlink"
   xmlns:sodipodi="http://sodipodi.sourceforge.net/DTD/sodipodi-0.dtd"
   xmlns:inkscape="http://www.inkscape.org/namespaces/inkscape"
   width="300"
   height="150"
   viewBox="0 0 79.37499 39.687503"
   version="1.1"
   id="svg4016"
   inkscape:version="0.92.3 (2405546, 2018-03-11)"
   sodipodi:docname="blobboring.svg">
  <defs
     id="defs4010">
    <linearGradient
       inkscape:collect="always"
       id="linearGradient1772">
      <stop
         id="stop1770"
         offset="0"
         style="stop-color:#000000;stop-opacity:0;" />
      <stop
         id="stop1768"
         offset="1"
         style="stop-color:#000000;stop-opacity:1" />
    </linearGradient>
    <radialGradient
       inkscape:collect="always"
       xlink:href="#linearGradient1772"
       id="radialGradient1774"
       cx="34.542049"
       cy="256.74673"
       fx="34.542049"
       fy="256.74673"
       r="32.822272"
       gradientTransform="matrix(1.6607923,0.87423096,-0.78424573,1.4898455,184.21109,-146.9071)"
       gradientUnits="userSpaceOnUse" />
  </defs>
  <sodipodi:namedview
     id="base"
     pagecolor="#ffffff"
     bordercolor="#666666"
     borderopacity="1.0"
     inkscape:pageopacity="0.0"
     inkscape:pageshadow="2"
     inkscape:zoom="1.979899"
     inkscape:cx="37.417535"
     inkscape:cy="43.793826"
     inkscape:document-units="mm"
     inkscape:current-layer="layer1"
     showgrid="false"
     units="px"
     inkscape:window-width="2560"
     inkscape:window-height="1323"
     inkscape:window-x="2560"
     inkscape:window-y="27"
     inkscape:window-maximized="1"
     inkscape:snap-nodes="false" />
  <metadata
     id="metadata4013">
    <rdf:RDF>
      <cc:Work
         rdf:about="">
        <dc:format>image/svg+xml</dc:format>
        <dc:type
           rdf:resource="http://purl.org/dc/dcmitype/StillImage" />
        <dc:title />
      </cc:Work>
    </rdf:RDF>
  </metadata>
  <g
     inkscape:label="Layer 1"
     inkscape:groupmode="layer"
     id="layer1"
     transform="translate(0,-257.31249)">
    <g
       id="g949"
       transform="matrix(0.38856452,0,0,0.38856452,-5.4802191,182.34903)">
      <g
         transform="matrix(0.84019176,0,0,0.84019176,49.132976,28.218297)"
         id="g3203">
        <path
           style="fill:#ff9197;fill-opacity:1;fill-rule:evenodd;stroke:none;stroke-width:1.53548598;stroke-miterlimit:4;stroke-dasharray:none;stroke-opacity:1"
           d="M 65.147628,252.04653 51.45449,264.91337 c -2.215555,2.08175 -11.276614,-8.1301 -9.855877,-15.06031 1.420715,-6.92985 19.219407,-6.4651 19.219407,-6.4651 2.398868,1.51588 5.435181,7.61965 4.329608,8.65857 z"
           id="path1670"
           inkscape:connector-curvature="0"
           sodipodi:nodetypes="sszss"
           inkscape:export-filename="/home/ash/Downloads/benthos.png"
           inkscape:export-xdpi="250.44547"
           inkscape:export-ydpi="250.44547" />
        <path
           style="fill:#ffc7c7;fill-opacity:1;fill-rule:evenodd;stroke:none;stroke-width:1.53548598;stroke-miterlimit:4;stroke-dasharray:none;stroke-opacity:1"
           d="m 56.419203,268.25647 c 7.088113,18.41696 30.057598,8.8911 34.853899,8.36608 3.879222,-0.42377 8.531552,2.66153 17.184738,2.94253 8.65318,0.28042 13.3739,-2.21178 20.80999,-1.14508 7.43608,1.06675 18.98474,11.34624 42.44383,4.35504 31.00002,-9.35467 -7.40275,-83.34763 -56.8543,-83.34763 -49.451519,0 -65.526345,50.41231 -58.438157,68.82906 z"
           id="path1672"
           inkscape:connector-curvature="0"
           sodipodi:nodetypes="zszzczz"
           inkscape:export-filename="/home/ash/Downloads/benthos.png"
           inkscape:export-xdpi="250.44547"
           inkscape:export-ydpi="250.44547" />
        <path
           sodipodi:nodetypes="sszss"
           inkscape:connector-curvature="0"
           id="path1674"
           d="m 163.60735,255.29262 17.10438,18.01217 c 2.76745,2.91449 14.08176,-8.72661 12.4437,-18.15728 -1.63806,-9.43081 -24.2903,-9.61165 -24.2903,-9.61165 -3.08845,1.93984 -6.63879,8.30241 -5.25778,9.75676 z"
           style="fill:#ff9197;fill-opacity:1;fill-rule:evenodd;stroke:none;stroke-width:1.53548598;stroke-miterlimit:4;stroke-dasharray:none;stroke-opacity:1"
           inkscape:export-filename="/home/ash/Downloads/benthos.png"
           inkscape:export-xdpi="250.44547"
           inkscape:export-ydpi="250.44547" />
        <g
           transform="matrix(2.2876817,0,0,2.2876817,49.531322,-57.681836)"
           id="g1698">
          <path
             style="opacity:1;fill:#b06264;fill-opacity:1;stroke:none;stroke-width:0.2448387;stroke-linecap:round;stroke-miterlimit:4;stroke-dasharray:none;stroke-opacity:1"
             d="m 8.1044741,142.94171 c 0.216042,-0.14647 6.9476509,-5.63435 13.0094799,-5.74633 4.111955,-0.0765 7.560345,-0.51357 12.552087,1.55116 4.991732,2.06495 10.614035,6.10999 10.760445,6.19962 0.14638,0.0892 0.24354,0.5982 0.13774,0.82525 -0.10579,0.22673 -0.44769,0.15871 -0.57062,0.0776 -0.12295,-0.0814 -6.247324,-3.71399 -10.484985,-5.46672 -4.23766,-1.75273 -7.87492,-1.547 -12.552076,-1.55116 -6.062888,-0.007 -12.1911639,5.02803 -12.3867999,5.06296 -0.195658,0.0412 -0.662729,0.17525 -0.783266,-0.10721 -0.100386,-0.23442 0.101974,-0.69929 0.318016,-0.84537 z"
             id="path1676"
             inkscape:connector-curvature="0"
             sodipodi:nodetypes="cszzzzzszszc" />
          <path
             inkscape:connector-curvature="0"
             id="path1678"
             d="m 18.07067,130.45115 a 5.1994305,5.2845316 0.12912279 0 1 -5.133011,5.35161 5.1994305,5.2845316 0.12912279 0 1 -5.2650189,-5.21659 5.1994305,5.2845316 0.12912279 0 1 5.1330159,-5.35165 5.1994305,5.2845316 0.12912279 0 1 5.265014,5.21663 z"
             style="opacity:1;fill:#fffefe;fill-opacity:1;stroke:none;stroke-width:0.91057765;stroke-linecap:round;stroke-miterlimit:4;stroke-dasharray:none;stroke-opacity:1" />
          <path
             inkscape:export-ydpi="250.44547"
             inkscape:export-xdpi="250.44547"
             inkscape:export-filename="/home/ash/Downloads/benthos.png"
             sodipodi:nodetypes="ssscs"
             inkscape:connector-curvature="0"
             id="path1680"
             d="m 13.107908,134.69345 c -2.241594,0.13689 -4.1683809,-1.5977 -4.3048649,-3.87584 -0.136521,-2.2781 1.5689629,-4.23799 3.8103299,-4.3787 2.241358,-0.14055 4.170881,1.59095 4.311357,3.87549 0.133292,2.28492 -1.575244,4.242 -3.816822,4.37905 z"
             style="fill:#000000;fill-opacity:1;stroke:none;stroke-width:1.07336783;stroke-miterlimit:4;stroke-dasharray:none;stroke-opacity:1" />
          <path
             sodipodi:nodetypes="zzzzz"
             inkscape:connector-curvature="0"
             id="path1682"
             d="m 13.553519,127.89353 c 0.391116,-0.53609 1.813031,-0.0602 2.311122,0.83111 0.498089,0.89095 0.493678,2.25983 -0.33173,2.53615 -0.825488,0.27592 -0.765065,-0.79935 -1.197677,-1.55733 -0.432733,-0.75801 -1.172981,-1.27384 -0.78176,-1.80976 z"
             style="fill:#ffffff;fill-opacity:1;stroke:none;stroke-width:0.59220499px;stroke-linecap:butt;stroke-linejoin:miter;stroke-opacity:1" />
          <ellipse
             transform="matrix(0.99826127,0.05894442,-0.08221311,0.99661477,0,0)"
             ry="0.6413818"
             rx="0.5282039"
             cy="131.07529"
             cx="26.213116"
             id="ellipse1684"
             style="opacity:1;fill:#ffffff;fill-opacity:1;stroke:none;stroke-width:2.6819427;stroke-linecap:round;stroke-linejoin:miter;stroke-miterlimit:4;stroke-dasharray:none;stroke-dashoffset:0;stroke-opacity:1" />
          <path
             style="fill:#ffc7c7;fill-opacity:1;stroke:none;stroke-width:0.24688239"
             d="m 29.827617,130.04291 a 6.7529665,7.1085864 85.954687 0 1 -6.660206,7.19459 6.7529665,7.1085864 85.954687 0 1 -7.52701,-6.27266 6.7529665,7.1085864 85.954687 0 1 6.648197,-7.20465 6.7529665,7.1085864 85.954687 0 1 7.537621,6.26114"
             id="path1686"
             inkscape:connector-curvature="0" />
          <path
             style="fill:#b06264;fill-opacity:1;stroke:none;stroke-width:0.26536983"
             d="m 29.235752,132.42957 c -0.83294,2.48023 -3.194576,4.35286 -6.08684,4.5401 -3.759757,0.24406 -6.994371,-2.45237 -7.226625,-6.024 -0.105893,-1.62932 0.431332,-3.15974 1.40388,-4.36593 0,0 0.612462,-0.69166 0.24205,-0.9855 -0.370402,-0.294 -0.897853,0.53034 -0.897853,0.53034 -1.082507,1.34874 -1.679752,3.0574 -1.561163,4.87616 0.261576,3.99718 3.882116,7.014 8.089936,6.74086 3.24156,-0.21023 5.88755,-2.31175 6.816577,-5.09346 0,0 0.218096,-0.56995 -0.164377,-0.7067 -0.382463,-0.13676 -0.615627,0.48813 -0.615627,0.48813 z"
             id="path1688"
             inkscape:connector-curvature="0"
             sodipodi:nodetypes="cccczcccczc" />
          <path
             style="opacity:1;fill:#fffefe;fill-opacity:1;stroke:none;stroke-width:0.91057771;stroke-linecap:round;stroke-miterlimit:4;stroke-dasharray:none;stroke-opacity:1"
             d="m 40.744956,130.40002 a 5.1994308,5.2845318 0.129123 0 1 -5.133011,5.35161 5.1994308,5.2845318 0.129123 0 1 -5.265019,-5.21659 5.1994308,5.2845318 0.129123 0 1 5.133017,-5.35165 5.1994308,5.2845318 0.129123 0 1 5.265013,5.21663 z"
             id="path1690"
             inkscape:connector-curvature="0" />
          <path
             style="fill:#000000;fill-opacity:1;stroke:none;stroke-width:1.07336783;stroke-miterlimit:4;stroke-dasharray:none;stroke-opacity:1"
             d="m 35.782194,134.64233 c -2.241594,0.13691 -4.168382,-1.5977 -4.304865,-3.87585 -0.136515,-2.2781 1.568963,-4.23799 3.81033,-4.3787 2.241358,-0.14059 4.170881,1.59095 4.311357,3.87549 0.133294,2.28493 -1.575244,4.242 -3.816822,4.37906 z"
             id="path1692"
             inkscape:connector-curvature="0"
             sodipodi:nodetypes="ssscs"
             inkscape:export-filename="/home/ash/Downloads/benthos.png"
             inkscape:export-xdpi="250.44547"
             inkscape:export-ydpi="250.44547" />
          <path
             style="fill:#ffffff;fill-opacity:1;stroke:none;stroke-width:0.59220499px;stroke-linecap:butt;stroke-linejoin:miter;stroke-opacity:1"
             d="m 36.227805,127.84241 c 0.391117,-0.53609 1.81303,-0.0601 2.311123,0.83111 0.498088,0.89094 0.493677,2.25982 -0.331731,2.53614 -0.825488,0.27593 -0.765065,-0.79934 -1.197676,-1.55732 -0.432734,-0.75801 -1.172982,-1.27384 -0.781761,-1.80977 z"
             id="path1694"
             inkscape:connector-curvature="0"
             sodipodi:nodetypes="zzzzz" />
          <ellipse
             style="opacity:1;fill:#ffffff;fill-opacity:1;stroke:none;stroke-width:2.6819427;stroke-linecap:round;stroke-linejoin:miter;stroke-miterlimit:4;stroke-dasharray:none;stroke-dashoffset:0;stroke-opacity:1"
             id="ellipse1696"
             cx="48.812588"
             cy="129.68732"
             rx="0.5282039"
             ry="0.64138186"
             transform="matrix(0.99826127,0.05894442,-0.08221311,0.99661477,0,0)" />
        </g>
      </g>
      <path
         sodipodi:nodetypes="cczc"
         inkscape:connector-curvature="0"
         id="path2346"
         d="m 108.727,209.49146 c 27.20736,9.48123 50.31468,6.97526 72.27123,1.10483 0,0 -18.21476,22.338 -50.41519,20.58968 C 98.382616,229.43765 108.727,209.49146 108.727,209.49146 Z"
         style="opacity:0.61299995;fill:#62b075;fill-opacity:1;stroke:none;stroke-width:0.27697581px;stroke-linecap:butt;stroke-linejoin:miter;stroke-opacity:1" />
    </g>
    <path
       style="opacity:1;fill:#fffad4;fill-opacity:1;stroke:none;stroke-width:0.20561537;stroke-linecap:round;stroke-linejoin:miter;stroke-miterlimit:4;stroke-dasharray:none;stroke-dashoffset:0;stroke-opacity:1"
       d="m 61.051047,284.02052 h 13.805605 l -8.591785,6.75592 H 52.459263 Z"
       id="rect2361"
       inkscape:connector-curvature="0"
       sodipodi:nodetypes="ccccc" />
    <g
       id="g954"
       transform="matrix(0.38856452,0,0,0.38856452,-5.4802191,182.34903)">
      <path
         sodipodi:nodetypes="cssscc"
         inkscape:connector-curvature="0"
         id="rect2348"
         d="m 189.97886,261.34371 17.5883,-27.68473 c 0.60901,-0.9586 1.86325,-1.24495 2.81219,-0.64209 0.94896,0.60288 1.22264,1.85994 0.61364,2.81854 l -17.58831,27.68473 z"
         style="opacity:1;fill:#ffe65f;fill-opacity:1;stroke:none;stroke-width:0.73422879;stroke-linecap:round;stroke-linejoin:miter;stroke-miterlimit:4;stroke-dasharray:none;stroke-dashoffset:0;stroke-opacity:1" />
      <path
         sodipodi:nodetypes="ccscc"
         inkscape:connector-curvature="0"
         id="rect2350"
         d="m 188.08997,268.10132 1.89982,-6.77483 c 0.3229,-0.50826 1.57715,-0.79461 2.52609,-0.19174 0.94896,0.60288 1.22264,1.85993 0.89974,2.36819 z"
         style="opacity:1;fill:#ffe5ba;fill-opacity:1;stroke:none;stroke-width:0.67328572;stroke-linecap:round;stroke-linejoin:miter;stroke-miterlimit:4;stroke-dasharray:none;stroke-dashoffset:0;stroke-opacity:1" />
      <path
         style="opacity:1;fill:#4c4c4c;fill-opacity:1;stroke:none;stroke-width:0.67328572;stroke-linecap:round;stroke-linejoin:miter;stroke-miterlimit:4;stroke-dasharray:none;stroke-dashoffset:0;stroke-opacity:1"
         d="m 188.08997,268.10132 0.47495,-1.69371 c 0,0 0.22863,-0.0755 0.52816,0.11476 0.29954,0.1903 0.32831,0.42936 0.32831,0.42936 z"
         id="path2356"
         inkscape:connector-curvature="0"
         sodipodi:nodetypes="cczcc" />
    </g>
    <path
       style="fill:url(#radialGradient1774);fill-opacity:1;fill-rule:evenodd;stroke:none;stroke-width:0.50128812;stroke-miterlimit:4;stroke-dasharray:none;stroke-opacity:1;opacity:0.485"
       d="m 51.108543,258.42082 c -10.982695,0 -16.918402,7.61584 -18.865516,14.37897 -1.730309,0.093 -4.723503,0.48435 -5.051372,2.0836 -0.463825,2.26249 2.494584,5.59663 3.217891,4.91701 l 1.153936,-1.08469 c 0.0684,0.75536 0.205935,1.44342 0.416512,2.0345 H 20.167795 l -4.070035,3.51762 h -5.019332 l 0.0031,7.49411 h 20.923271 v -0.005 l 8.67079,-7.50962 c 1.245684,-0.25533 2.261161,-0.5731 2.733164,-0.62477 1.266444,-0.13835 2.785517,0.86893 5.610511,0.96067 2.824993,0.0915 4.366249,-0.72187 6.793902,-0.37362 0.915254,0.1313 2.022244,0.68985 3.455601,1.21284 l -6.809404,5.3542 h 13.80536 l 8.591725,-6.75566 h -2.729035 c 0.31726,-0.39782 0.567124,-0.84863 0.75396,-1.3441 1.20406,0.198 4.280246,-3.23657 3.788915,-6.06527 -0.09995,-0.57543 -0.439359,-1.04558 -0.925523,-1.42937 l 0.759643,-1.19579 c 0.236635,-0.37248 0.129987,-0.86077 -0.238745,-1.09503 -0.368726,-0.23424 -0.855802,-0.12288 -1.09244,0.2496 l -0.815454,1.28313 c -0.819415,-0.32204 -1.748483,-0.53527 -2.614311,-0.67593 -3.284281,-7.36136 -11.363867,-15.32775 -20.634915,-15.32775 z"
       id="path1458"
       inkscape:connector-curvature="0" />
    <g
       id="g1016"
       transform="matrix(0.38856452,0,0,0.38856452,-5.4802191,182.34903)">
      <path
         sodipodi:nodetypes="cccccc"
         inkscape:connector-curvature="0"
         id="path2183"
         d="m 66.00762,253.24135 -10.82442,9.35443 h 49.86094 v 2.92685 l 14.551,-12.28128 z"
         style="fill:#4e4e4e;fill-opacity:1;stroke:none;stroke-width:0.26458332px;stroke-linecap:butt;stroke-linejoin:miter;stroke-opacity:1" />
      <g
         style="fill:#a1a1a1;fill-opacity:1"
         transform="translate(-428.44949,17.369366)"
         id="g2279">
        <g
           style="fill:#a1a1a1;fill-opacity:1"
           id="g2228"
           transform="matrix(1,0,0,0.72650129,-6.8035715,79.331154)">
          <rect
             transform="matrix(0.90753717,0.41997176,-0.75664039,0.65383126,0,0)"
             ry="2.1772676"
             y="-19.213316"
             x="572.30475"
             height="5.6150622"
             width="4.5024862"
             id="rect2210"
             style="opacity:1;fill:#a1a1a1;fill-opacity:1;stroke:none;stroke-width:0.51502526;stroke-linecap:round;stroke-linejoin:miter;stroke-miterlimit:4;stroke-dasharray:none;stroke-dashoffset:0;stroke-opacity:1" />
          <rect
             style="opacity:1;fill:#a1a1a1;fill-opacity:1;stroke:none;stroke-width:0.51502526;stroke-linecap:round;stroke-linejoin:miter;stroke-miterlimit:4;stroke-dasharray:none;stroke-dashoffset:0;stroke-opacity:1"
             id="rect2212"
             width="4.5024862"
             height="5.6150622"
             x="567.23267"
             y="-15.955385"
             ry="2.1772676"
             transform="matrix(0.90753717,0.41997176,-0.75664039,0.65383126,0,0)" />
          <rect
             transform="matrix(0.90753717,0.41997176,-0.75664039,0.65383126,0,0)"
             ry="2.1772676"
             y="-12.697471"
             x="562.16058"
             height="5.6150622"
             width="4.5024862"
             id="rect2214"
             style="opacity:1;fill:#a1a1a1;fill-opacity:1;stroke:none;stroke-width:0.51502526;stroke-linecap:round;stroke-linejoin:miter;stroke-miterlimit:4;stroke-dasharray:none;stroke-dashoffset:0;stroke-opacity:1" />
          <rect
             style="opacity:1;fill:#a1a1a1;fill-opacity:1;stroke:none;stroke-width:0.51502526;stroke-linecap:round;stroke-linejoin:miter;stroke-miterlimit:4;stroke-dasharray:none;stroke-dashoffset:0;stroke-opacity:1"
             id="rect2216"
             width="4.5024862"
             height="5.6150622"
             x="557.08856"
             y="-9.4395771"
             ry="2.1772676"
             transform="matrix(0.90753717,0.41997176,-0.75664039,0.65383126,0,0)" />
          <rect
             transform="matrix(0.90753717,0.41997176,-0.75664039,0.65383126,0,0)"
             ry="2.1772676"
             y="-6.1816559"
             x="552.01648"
             height="5.6150622"
             width="4.5024862"
             id="rect2218"
             style="opacity:1;fill:#a1a1a1;fill-opacity:1;stroke:none;stroke-width:0.51502526;stroke-linecap:round;stroke-linejoin:miter;stroke-miterlimit:4;stroke-dasharray:none;stroke-dashoffset:0;stroke-opacity:1" />
          <rect
             style="opacity:1;fill:#a1a1a1;fill-opacity:1;stroke:none;stroke-width:0.51502526;stroke-linecap:round;stroke-linejoin:miter;stroke-miterlimit:4;stroke-dasharray:none;stroke-dashoffset:0;stroke-opacity:1"
             id="rect2220"
             width="4.5024862"
             height="5.6150622"
             x="546.9444"
             y="-2.9237399"
             ry="2.1772676"
             transform="matrix(0.90753717,0.41997176,-0.75664039,0.65383126,0,0)" />
        </g>
        <g
           style="fill:#a1a1a1;fill-opacity:1"
           id="g2242"
           transform="matrix(1,0,0,0.72650129,-3.2127977,75.486752)">
          <rect
             style="opacity:1;fill:#a1a1a1;fill-opacity:1;stroke:none;stroke-width:0.51502526;stroke-linecap:round;stroke-linejoin:miter;stroke-miterlimit:4;stroke-dasharray:none;stroke-dashoffset:0;stroke-opacity:1"
             id="rect2230"
             width="4.5024862"
             height="5.6150622"
             x="572.30475"
             y="-19.213316"
             ry="2.1772676"
             transform="matrix(0.90753717,0.41997176,-0.75664039,0.65383126,0,0)" />
          <rect
             transform="matrix(0.90753717,0.41997176,-0.75664039,0.65383126,0,0)"
             ry="2.1772676"
             y="-15.955385"
             x="567.23267"
             height="5.6150622"
             width="4.5024862"
             id="rect2232"
             style="opacity:1;fill:#a1a1a1;fill-opacity:1;stroke:none;stroke-width:0.51502526;stroke-linecap:round;stroke-linejoin:miter;stroke-miterlimit:4;stroke-dasharray:none;stroke-dashoffset:0;stroke-opacity:1" />
          <rect
             style="opacity:1;fill:#a1a1a1;fill-opacity:1;stroke:none;stroke-width:0.51502526;stroke-linecap:round;stroke-linejoin:miter;stroke-miterlimit:4;stroke-dasharray:none;stroke-dashoffset:0;stroke-opacity:1"
             id="rect2234"
             width="4.5024862"
             height="5.6150622"
             x="562.16058"
             y="-12.697471"
             ry="2.1772676"
             transform="matrix(0.90753717,0.41997176,-0.75664039,0.65383126,0,0)" />
          <rect
             transform="matrix(0.90753717,0.41997176,-0.75664039,0.65383126,0,0)"
             ry="2.1772676"
             y="-9.4395771"
             x="557.08856"
             height="5.6150622"
             width="4.5024862"
             id="rect2236"
             style="opacity:1;fill:#a1a1a1;fill-opacity:1;stroke:none;stroke-width:0.51502526;stroke-linecap:round;stroke-linejoin:miter;stroke-miterlimit:4;stroke-dasharray:none;stroke-dashoffset:0;stroke-opacity:1" />
          <rect
             style="opacity:1;fill:#a1a1a1;fill-opacity:1;stroke:none;stroke-width:0.51502526;stroke-linecap:round;stroke-linejoin:miter;stroke-miterlimit:4;stroke-dasharray:none;stroke-dashoffset:0;stroke-opacity:1"
             id="rect2238"
             width="4.5024862"
             height="5.6150622"
             x="552.01648"
             y="-6.1816559"
             ry="2.1772676"
             transform="matrix(0.90753717,0.41997176,-0.75664039,0.65383126,0,0)" />
          <rect
             transform="matrix(0.90753717,0.41997176,-0.75664039,0.65383126,0,0)"
             ry="2.1772676"
             y="-2.9237399"
             x="546.9444"
             height="5.6150622"
             width="4.5024862"
             id="rect2240"
             style="opacity:1;fill:#a1a1a1;fill-opacity:1;stroke:none;stroke-width:0.51502526;stroke-linecap:round;stroke-linejoin:miter;stroke-miterlimit:4;stroke-dasharray:none;stroke-dashoffset:0;stroke-opacity:1" />
        </g>
        <g
           style="fill:#a1a1a1;fill-opacity:1"
           transform="matrix(1,0,0,0.72650129,0.85044644,71.642349)"
           id="g2256">
          <rect
             transform="matrix(0.90753717,0.41997176,-0.75664039,0.65383126,0,0)"
             ry="2.1772676"
             y="-19.213316"
             x="572.30475"
             height="5.6150622"
             width="4.5024862"
             id="rect2244"
             style="opacity:1;fill:#a1a1a1;fill-opacity:1;stroke:none;stroke-width:0.51502526;stroke-linecap:round;stroke-linejoin:miter;stroke-miterlimit:4;stroke-dasharray:none;stroke-dashoffset:0;stroke-opacity:1" />
          <rect
             style="opacity:1;fill:#a1a1a1;fill-opacity:1;stroke:none;stroke-width:0.51502526;stroke-linecap:round;stroke-linejoin:miter;stroke-miterlimit:4;stroke-dasharray:none;stroke-dashoffset:0;stroke-opacity:1"
             id="rect2246"
             width="4.5024862"
             height="5.6150622"
             x="567.23267"
             y="-15.955385"
             ry="2.1772676"
             transform="matrix(0.90753717,0.41997176,-0.75664039,0.65383126,0,0)" />
          <rect
             transform="matrix(0.90753717,0.41997176,-0.75664039,0.65383126,0,0)"
             ry="2.1772676"
             y="-12.697471"
             x="562.16058"
             height="5.6150622"
             width="4.5024862"
             id="rect2248"
             style="opacity:1;fill:#a1a1a1;fill-opacity:1;stroke:none;stroke-width:0.51502526;stroke-linecap:round;stroke-linejoin:miter;stroke-miterlimit:4;stroke-dasharray:none;stroke-dashoffset:0;stroke-opacity:1" />
          <rect
             style="opacity:1;fill:#a1a1a1;fill-opacity:1;stroke:none;stroke-width:0.51502526;stroke-linecap:round;stroke-linejoin:miter;stroke-miterlimit:4;stroke-dasharray:none;stroke-dashoffset:0;stroke-opacity:1"
             id="rect2250"
             width="4.5024862"
             height="5.6150622"
             x="557.08856"
             y="-9.4395771"
             ry="2.1772676"
             transform="matrix(0.90753717,0.41997176,-0.75664039,0.65383126,0,0)" />
          <rect
             transform="matrix(0.90753717,0.41997176,-0.75664039,0.65383126,0,0)"
             ry="2.1772676"
             y="-6.1816559"
             x="552.01648"
             height="5.6150622"
             width="4.5024862"
             id="rect2252"
             style="opacity:1;fill:#a1a1a1;fill-opacity:1;stroke:none;stroke-width:0.51502526;stroke-linecap:round;stroke-linejoin:miter;stroke-miterlimit:4;stroke-dasharray:none;stroke-dashoffset:0;stroke-opacity:1" />
          <rect
             style="opacity:1;fill:#a1a1a1;fill-opacity:1;stroke:none;stroke-width:0.51502526;stroke-linecap:round;stroke-linejoin:miter;stroke-miterlimit:4;stroke-dasharray:none;stroke-dashoffset:0;stroke-opacity:1"
             id="rect2254"
             width="4.5024862"
             height="5.6150622"
             x="546.9444"
             y="-2.9237399"
             ry="2.1772676"
             transform="matrix(0.90753717,0.41997176,-0.75664039,0.65383126,0,0)" />
        </g>
      </g>
      <ellipse
         style="opacity:1;fill:#fffad4;fill-opacity:1;stroke:none;stroke-width:0.3326686;stroke-linecap:round;stroke-linejoin:miter;stroke-miterlimit:4;stroke-dasharray:none;stroke-dashoffset:0;stroke-opacity:1"
         id="ellipse2199"
         cx="49.814529"
         cy="262.5575"
         rx="3.8742559"
         ry="5.7641368" />
      <path
         sodipodi:nodetypes="cccscscc"
         inkscape:connector-curvature="0"
         d="m 102.10072,262.3865 c 0,0 -1.31867,-10.27515 -4.15773,-13.89062 -2.83905,-3.61548 -7.3506,-6.80615 -11.24479,-7.37053 -0.75627,-0.10961 -1.48813,-0.15808 -2.19552,-0.14717 -2.9351,0.0452 -18.01062,-0.0232 -20.09903,1.94058 -2.59174,2.4371 -5.16323,5.88392 -4.0693,10.30182 1.09393,4.41789 11.09526,5.10374 13.89063,9.16592 h 27.87574"
         style="fill:#fffad4;fill-opacity:1;stroke:none;stroke-width:0.26458332px;stroke-linecap:butt;stroke-linejoin:miter;stroke-opacity:1"
         id="path2293" />
      <rect
         ry="0"
         y="256.79337"
         x="49.664078"
         height="11.528274"
         width="48.29121"
         id="rect2187"
         style="opacity:1;fill:#f0e59f;fill-opacity:1;stroke:none;stroke-width:0.30419388;stroke-linecap:round;stroke-linejoin:miter;stroke-miterlimit:4;stroke-dasharray:none;stroke-dashoffset:0;stroke-opacity:1" />
      <ellipse
         ry="5.7641368"
         rx="3.8742559"
         cy="262.5575"
         cx="98.123489"
         id="path2191"
         style="opacity:1;fill:#efeac1;fill-opacity:1;stroke:none;stroke-width:0.3326686;stroke-linecap:round;stroke-linejoin:miter;stroke-miterlimit:4;stroke-dasharray:none;stroke-dashoffset:0;stroke-opacity:1" />
      <path
         sodipodi:nodetypes="ccccccc"
         inkscape:connector-curvature="0"
         id="path2181"
         d="m 96.46328,262.29372 v 19.27993 l 23.13186,-20.03213 0.001,-8.3088 -14.17412,11.77019 -0.13896,-2.79704 z"
         style="fill:#c5c5c5;fill-opacity:1;stroke:none;stroke-width:0.26458332px;stroke-linecap:butt;stroke-linejoin:miter;stroke-opacity:1" />
      <path
         sodipodi:nodetypes="ccccc"
         inkscape:connector-curvature="0"
         id="path2185"
         d="m 42.61547,262.29377 0.007,19.28642 h 53.84781 l -0.007,-19.28647 -53.84782,5e-5"
         style="fill:#9b9b9b;fill-opacity:1;stroke:none;stroke-width:0.26458332px;stroke-linecap:butt;stroke-linejoin:miter;stroke-opacity:1" />
      <path
         sodipodi:nodetypes="ccccccsccccsccccc"
         inkscape:connector-curvature="0"
         d="M 71.38877,292.21139 H 20.92895 c 0,0 7.68736,-1.06296 10.48884,-2.07887 2.80149,-1.01591 5.05448,-1.90723 6.70909,-4.06324 1.65462,-2.15601 2.51441,-4.47585 2.36233,-8.12649 -0.15207,-3.65065 -2.0238,-8.50553 -4.81918,-12.56771 -2.79537,-4.06218 -9.30042,-6.8269 -10.39435,-11.24479 -1.09393,-4.4179 -0.32387,-7.57927 2.26787,-10.01637 1.98451,-1.86611 4.33779,-2.97897 7.08704,-3.11831 0.84122,-0.0426 50.55431,0 50.55431,0 -2.88789,0.07 -5.1193,1.17912 -7.18153,3.11831 -2.59174,2.4371 -3.3618,5.59847 -2.26787,10.01637 1.09393,4.41789 7.59898,7.18261 10.39435,11.24479 2.79538,4.06218 4.66711,8.91706 4.81918,12.56771 0.15208,3.65064 -0.70771,5.97048 -2.36233,8.12649 -1.65461,2.15601 -3.9076,3.04733 -6.70909,4.06324 -2.80148,1.01591 -10.48884,2.07887 -10.48884,2.07887"
         style="fill:#f3e8a0;fill-opacity:1;stroke:none;stroke-width:0.26458332px;stroke-linecap:butt;stroke-linejoin:miter;stroke-opacity:1"
         id="path2305" />
    </g>
  </g>
</svg>
